# xmcd CD database file
#
# Track frame offsets:
#	150
#	19785
#	37383
#	53092
#	71380
#	85272
#	99095
#	112245
#	124831
#	138779
#	152261
#	167248
#	189432
#	200653
#
# Disc length: 2894 seconds
#
# Revision: 0
# Processed by: cddbd v1.5.2PL0 Copyright (c) Steve Scherf et al.
# Submitted via: Fey Extractor 
#
DISCID=ba0b4c0e
DTITLE=Marley's Ghost - Ghost Town - Ghost Town
DYEAR=2010
DGENRE=Country
TTITLE0=Marley's Ghost - Ghost Town01 Travelin' Tear Drop Blues
TTITLE1=Marley's Ghost - Ghost Town02 Goodbye to Old Missoula
TTITLE2=Marley's Ghost - Ghost Town03 My Love Will Not Change
TTITLE3=Marley's Ghost - Ghost Town04 Love and Happiness for You
TTITLE4=Marley's Ghost - Ghost Town05 Poor Old Dirt Farmer
TTITLE5=Marley's Ghost - Ghost Town06 Should I be Singing the Blues
TTITLE6=Marley's Ghost - Ghost Town07 Got Leavin' on her Mind
TTITLE7=Marley's Ghost - Ghost Town08 Here I am in Love Again
TTITLE8=Marley's Ghost - Ghost Town09 She's Too good for me
TTITLE9=Marley's Ghost - Ghost Town10 Less and Less
TTITLE10=Marley's Ghost - Ghost Town11 Which Way do We Go
TTITLE11=Marley's Ghost - Ghost Town12 Light in the Forest
TTITLE12=Marley's Ghost - Ghost Town13 Goin' Back to Bowling Green
TTITLE13=Marley's Ghost - Ghost Town14 Don't We All Feel Like That
EXTD=YEAR: 2010
EXTT0=
EXTT1=
EXTT2=
EXTT3=
EXTT4=
EXTT5=
EXTT6=
EXTT7=
EXTT8=
EXTT9=
EXTT10=
EXTT11=
EXTT12=
EXTT13=
PLAYORDER=
